PathFileType	4	(X/Y/Z)	C:/Users/beibeiliu/ov580/test_trc/User2\sequence.10_training_dense_left.trc
DataRate	CameraRate	NumFrames	NumMarkers	Units	OrigDataRate	OrigDataStartFrame	OrigNumFrames
120	120	17	19	mm	120	1	484
Frame#	Time	ThumbCMC			ThumbMCP			ThumbIP			ThumbTip			IndexMCP			IndexPIP			IndexTip			MiddleMCP			MiddlePIP			MiddleTip			RingMCP			RingPIP			RingTip			PinkyMCP			PinkyPIP			PinkyTip			BackHand1			BackHand2			BackHand3	
		X0	Y0	Z0	X1	Y1	Z1	X2	Y2	Z2	X3	Y3	Z3	X4	Y4	Z4	X5	Y5	Z5	X6	Y6	Z6	X7	Y7	Z7	X8	Y8	Z8	X9	Y9	Z9	X10	Y10	Z10	X11	Y11	Z11	X12	Y12	Z12	X13	Y13	Z13	X14	Y14	Z14	X15	Y15	Z15	X16	Y16	Z16	X17	Y17	Z17	X18	Y18	Z18	
0	0	-123.297	-47.0315	137.273	-103.564	-56.9223	117.405	-79.6228	-63.6203	92.3228	-64.3193	-72.6948	71.666	-144.127	-41.8875	54.5672	-137.108	-45.2733	27.956	-133.106	-49.3153	-4.74693	-170.925	-41.4225	47.1819	-173.817	-45.2577	15.4082	-177.949	-51.9342	-15.7216	-194.294	-47.378	53.2914	-199.732	-50.0964	30.2669	-204.088	-56.3941	1.52172	-217.747	-58.6793	74.3766	-225.032	-61.5391	53.6408	-230.899	-57.7329	28.467	-192.122	-35.835	107.648	-191.267	-27.1832	144.548	-157.588	-26.5067	121.738	
1	0.00833333	-125.627	-47.4957	134.372	-103.554	-55.5517	115.473	-85.2878	-64.3635	90.6397	-65.6367	-72.967	71.5007	-145.59	-40.9352	52.2853	-139.669	-43.918	22.878	-136.252	-49.1616	-6.45325	-171.48	-40.705	44.0101	-173.995	-44.2379	17.2263	-179.399	-51.18	-16.3111	-199.75	-46.6295	55.2729	-200.111	-49.9094	29.2484	-205.582	-55.6276	-4.0429	-215.384	-58.6924	77.3158	-227.962	-59.6931	48.5423	-234.474	-55.9044	30.3275	-195.105	-36.5628	111.169	-191.483	-26.2367	141.222	-157.789	-27.0628	119.546	
2	0.0166667	-126.175	-47.4957	136.244	-106.152	-55.997	117.812	-81.8573	-64.0003	88.1192	-68.7977	-72.8697	75.1878	-140.775	-39.9212	49.2818	-140.491	-43.1078	25.1615	-133.203	-46.968	-2.00844	-174.435	-38.9657	47.5527	-175.044	-43.2951	16.1626	-177.024	-49.0753	-14.6438	-195.049	-44.8965	56.9039	-201.661	-49.3118	25.0306	-206.99	-54.8481	-2.73648	-217.713	-56.1934	76.5918	-228.27	-58.793	50.8888	-233.881	-56.4551	29.1791	-196.31	-35.0154	110.846	-191.155	-27.1631	141.417	-159.677	-26.3331	122.736	
3	0.025	-123.247	-46.2121	131.852	-106.668	-55.8561	114.901	-84.0148	-63.8787	90.0641	-68.1215	-72.4961	77.1293	-143.773	-39.3132	50.0325	-136.172	-41.414	22.5755	-138.691	-46.418	-0.942825	-172.262	-37.9444	49.2444	-175.632	-42.338	14.4297	-179.914	-48.5539	-14.9447	-195.386	-43.8554	54.5453	-202.785	-48.1446	26.8875	-204.632	-52.5482	2.24301	-213.3	-55.9199	77.4169	-224.249	-56.0282	50.8812	-234.519	-52.7062	30.5145	-194.803	-35.4168	108.394	-195.177	-26.6891	141.047	-158.545	-25.3835	120.102	
4	0.0333333	-127.717	-46.6368	135.858	-105.163	-54.8274	113.629	-81.5451	-62.75	92.0471	-65.5405	-71.4747	75.7232	-141.453	-37.3961	53.8909	-138.154	-39.8352	27.7602	-133.89	-43.6696	0.0239735	-170.515	-35.7372	43.8276	-173.031	-41.7911	12.3893	-177.391	-46.5374	-13.4489	-200.234	-44.4914	56.1795	-202.163	-46.7513	25.5859	-207.603	-52.8992	-1.69462	-219.46	-55.3666	76.2285	-223.181	-56.0144	51.963	-235.133	-51.9285	30.3006	-195.949	-33.2087	109.286	-189.927	-25.1741	139.571	-159.502	-25.8475	120.527	
5	0.0416667	-127.399	-46.1257	131.879	-106.478	-54.2023	114.541	-84.1301	-62.411	88.0075	-65.7552	-71.3335	74.23	-141.167	-37.1522	55.2807	-141.013	-40.2781	23.6198	-134.96	-43.5727	0.0481165	-174.959	-36.6697	45.2529	-174.359	-40.2346	15.3424	-181.116	-46.9062	-14.2659	-201.211	-43.8882	56.4143	-205.676	-46.8128	26.572	-209.292	-51.7822	1.78295	-217.563	-53.721	76.5683	-223.614	-55.7175	54.0777	-235.806	-53.8595	30.6614	-192.699	-32.6126	112.773	-192.378	-25.7925	142.111	-156.471	-25.0999	121.867	
6	0.05	-125.186	-45.0014	132.156	-104.098	-53.8245	113.931	-85.8059	-64.2129	92.2188	-69.2819	-71.9376	74.4266	-145.098	-37.1063	49.7037	-138.171	-39.9922	27.8138	-137.711	-43.3977	-0.50984	-176.204	-36.0331	44.6888	-174.527	-39.4721	17.5195	-179.764	-45.1492	-16.3393	-196.61	-42.3615	57.9745	-204.478	-45.633	29.2956	-206.764	-49.3995	-2.52121	-220.199	-53.3865	76.7151	-228.131	-54.2085	49.3276	-236.428	-51.6255	29.1382	-191.644	-33.8649	113.085	-193.847	-24.976	143.827	-159.912	-23.0997	123.171	
7	0.0583333	-125.834	-43.8289	136.532	-105.35	-53.7806	116.606	-82.3213	-61.7244	88.4812	-66.5109	-70.9485	74.7537	-144.589	-35.2223	50.7114	-137.776	-38.8683	22.831	-139.165	-41.2602	-0.970294	-174.908	-34.7952	44.6716	-176.246	-38.6929	16.4211	-177.098	-44.84	-19.2942	-197.159	-40.8375	56.3888	-207.414	-44.9146	28.8745	-209.313	-49.1768	1.16142	-220.905	-51.0781	74.1794	-226.639	-53.3703	52.4219	-237.282	-50.005	26.223	-197.533	-32.97	113.285	-194.249	-24.5523	141.795	-157.548	-21.2657	121.77	
8	0.0666667	-127.074	-44.0946	133.537	-107.051	-53.4991	113.377	-88.1335	-62.5124	88.9744	-70.3098	-71.0784	69.3917	-145.665	-33.274	53.0671	-140.193	-35.9599	22.0959	-134.774	-38.7665	-5.09467	-175.137	-32.1305	48.0933	-179.885	-36.7806	12.9162	-180.447	-42.8283	-16.639	-200.35	-38.7985	54.9046	-207.559	-42.414	29.0122	-207.034	-47.4132	-2.18419	-221.12	-50.5473	78.3468	-227.247	-51.6247	53.2713	-238.366	-48.0261	28.5436	-195.904	-31.9035	111.518	-195.484	-24.178	145.123	-160.089	-22.5836	123.289	
9	0.075	-130.296	-43.0787	134.987	-104.571	-52.6695	114.062	-85.5238	-61.9193	90.5842	-76.1445	-73.5727	71.1193	-145.748	-30.415	52.14	-144.436	-32.2717	26.7882	-140.437	-34.144	-2.45185	-174.882	-28.4057	45.9583	-176.656	-32.2776	14.8832	-180.484	-40.4146	-15.3604	-198.35	-34.8539	53.4801	-209.132	-38.821	30.3182	-208.842	-46.4258	-0.600944	-217.646	-47.8965	77.6355	-230.096	-49.2253	50.2061	-236.813	-47.5453	27.5009	-199.79	-29.1231	112.668	-196.565	-21.7416	141.469	-160.187	-19.9953	124.402	
10	0.0833333	-129.22	-40.1727	132.869	-108.281	-51.8647	113.981	-89.9799	-63.3737	87.2023	-77.2112	-74.145	67.0879	-149.588	-26.111	51.6404	-143.071	-27.197	26.3564	-142.404	-29.4694	-4.43792	-178.004	-23.9349	45.1504	-179.365	-28.8034	16.1346	-185.988	-39.3512	-14.7766	-205.707	-32.3959	56.7975	-209.783	-35.3872	29.5706	-208.641	-45.6948	-2.30989	-219.191	-44.5497	77.1939	-230.275	-45.7821	49.6558	-236.468	-47.9507	25.9785	-200.93	-26.087	113.819	-197.133	-20.5997	141.507	-163.733	-16.4988	124.234	
11	0.0916667	-133.757	-39.9841	135.757	-107.415	-51.3867	115.21	-91.6704	-63.4527	87.2306	-86.3744	-75.4499	66.3313	-149.539	-20.4824	52.5924	-144.589	-21.233	24.885	-144.437	-23.5205	0.0640326	-179.692	-19.0781	49.4455	-183.881	-24.4482	14.5755	-185.941	-40.7179	-17.2595	-205.23	-27.8374	59.3966	-207.313	-31.8497	29.7038	-209.582	-46.8324	1.95156	-220.115	-38.7122	72.601	-228.086	-43.0957	49.9639	-236.063	-51.1162	21.9625	-202.328	-21.3187	113.094	-200.72	-17.3862	145.078	-162.078	-15.3384	123.787	
12	0.1	-135.327	-36.2057	131.879	-115.575	-51.246	112.619	-96.5996	-64.5181	84.6068	-91.2362	-75.6432	61.9119	-150.093	-13.9064	53.2835	-144.285	-14.0972	27.4213	-144.704	-16.713	2.37139	-179.485	-12.6859	49.0935	-184.611	-21.3839	14.1392	-186.937	-42.2324	-10.7178	-207.713	-21.7474	59.0967	-205.936	-29.0738	26.691	-204.574	-52.191	4.60818	-223.227	-35.9558	77.5254	-228.195	-40.2868	48.7424	-225.919	-56.5069	20.1556	-199.32	-19.3168	112.825	-199.205	-15.5878	148.736	-165.477	-12.2864	128.148	
13	0.108333	-135.22	-35.1291	135.369	-114.812	-49.6908	108.826	-104.796	-62.9878	77.8969	-105.38	-75.6625	54.2706	-156.487	-8.16114	57.655	-149.992	-6.53794	31.1304	-147.76	-9.18283	-0.696359	-183.215	-7.45849	48.2688	-183.564	-21.183	15.279	-182.24	-50.5527	-2.19153	-205.721	-17.2778	56.6523	-206.649	-28.1436	29.8612	-197.474	-58.6135	15.2013	-220.301	-29.7659	72.6206	-223.676	-42.6504	42.1361	-212.55	-64.4642	26.9527	-202.173	-16.1749	114.063	-201.447	-11.5908	147.543	-167.544	-6.21994	131.704	
14	0.116667	-136.321	-30.658	133.433	-120.248	-47.5853	108.364	-113.808	-62.134	75.0797	-121.561	-72.9711	51.0794	-159.949	-1.31574	55.6658	-155.529	0.0923966	29.887	-152.369	-2.61363	0.428237	-184.014	-7.34796	50.4592	-182.66	-26.5339	18.1585	-177.513	-68.0874	15.1274	-205.83	-17.851	55.5911	-203.39	-36.2208	28.9862	-189.807	-66.5683	30.7797	-224.435	-30.2315	70.5158	-220.499	-44.6134	43.8893	-202.523	-76.3005	39.7587	-209.071	-13.2971	117.516	-203.414	-12.5173	147.184	-172.202	-3.43303	129.671	
15	0.125	-139.388	-28.9549	130.851	-126.973	-45.8349	101.397	-124.724	-59.4285	65.735	-133.897	-72.0286	46.8356	-161.522	2.84866	56.7759	-156.174	5.47969	29.0026	-159.083	3.65517	-2.98381	-189.383	-9.97528	49.2857	-180.865	-37.7771	20.1013	-173.301	-72.437	30.9283	-208.181	-22.0019	54.4874	-200.166	-44.3287	32.5917	-186.735	-74.0052	47.8888	-225.205	-33.7766	68.4926	-213.538	-53.4461	45.4389	-194.299	-78.8808	56.773	-209.188	-12.3657	113.453	-206.484	-11.3759	147.411	-173.627	1.23931	126.652	
16	0.133333	-141.166	-26.4088	129.821	-130.539	-43.752	94.5964	-133.427	-57.7588	64.723	-150.037	-67.3007	41.279	-167.386	5.07901	57.4283	-165.918	7.15415	25.2568	-165.611	7.75315	-0.961541	-193.738	-13.1984	49.5757	-187.02	-43.3123	24.6549	-174.827	-74.7836	43.5751	-207.34	-26.1903	52.1021	-201.446	-54.7017	36.4627	-184.611	-76.5573	63.347	-224.88	-37.8994	66.0254	-212.914	-60.8271	49.3754	-194.746	-78.8169	68.8474	-212.65	-11.277	117.189	-208.411	-8.94645	145.509	-178.527	2.31539	125.487	
